<svg enable-background="new 0 0 512 512" viewBox="0 0 512 512" xmlns="http://www.w3.org/2000/svg"><path d="m86.032 327.858h349.78v184.142h-349.78z" fill="#ccc"/><path d="m468.987 92.821c10.733 7.028 12.256 18.648 8.059 28.182h-2.842-61.234-2.854c-4.185-9.534-2.662-21.154 8.059-28.182 21.838-14.283 25.412-28.182 25.412-28.182s3.574 13.899 25.4 28.182z" fill="#e6e6e6"/><path d="m93.819 92.821c10.733 7.028 12.256 18.648 8.059 28.182h-2.854-61.221-2.854c-4.197-9.534-2.674-21.154 8.059-28.182 21.838-14.283 25.412-28.182 25.412-28.182s3.573 13.899 25.399 28.182z" fill="#e6e6e6"/><path d="m68.395 64.735c-.192 1.211-2.422 14.475-13.491 28.086-5.708 7.028-6.512 18.648-4.281 28.182h-15.674c-4.197-9.534-2.674-21.154 8.059-28.182 20.818-13.612 25.039-26.875 25.387-28.086z" fill="#ccc"/><path d="m68.419 64.663c-.012.012-.012.036-.024.072.012-.06.012-.096.012-.096s0 .012.012.024z" fill="#ccc"/><g fill="#f7b239"><path d="m289.809 77.183c13.431 0 25.436-6.068 33.459-15.59-3.13 27.75-26.683 49.324-55.273 49.324-30.736 0-55.644-24.908-55.644-55.632 0-28.602 21.574-52.143 49.336-55.285-9.534 8.023-15.59 20.039-15.59 33.459 0 24.152 19.572 43.724 43.712 43.724z"/><path d="m451.215 52.788c4.718 0 8.935-2.131 11.754-5.477-1.1 9.749-9.373 17.326-19.417 17.326-10.797 0-19.546-8.75-19.546-19.543 0-10.047 7.579-18.317 17.331-19.42-3.349 2.818-5.477 7.039-5.477 11.754 0 8.486 6.875 15.36 15.355 15.36z"/><path d="m76.081 52.788c4.718 0 8.935-2.131 11.754-5.477-1.1 9.749-9.373 17.328-19.416 17.328-10.797 0-19.546-8.75-19.546-19.543 0-10.047 7.579-18.317 17.331-19.42-3.349 2.818-5.477 7.039-5.477 11.754-.001 8.484 6.874 15.358 15.354 15.358z"/></g><path d="m305.184 422.609v89.391h-95.855v-89.391c0-25.16 20.411-45.571 45.571-45.571h4.713c25.172 0 45.571 20.411 45.571 45.571z" fill="#999"/><path d="m474.203 121.002v390.998h-61.233v-184.142-206.856z" fill="#e6e6e6"/><path d="m99.024 327.858v184.142h-61.221v-390.998h61.221z" fill="#e6e6e6"/><path d="m60.648 327.858v184.142h-22.845v-390.998h22.845z" fill="#ccc"/><path d="m435.816 327.858v184.142h-22.846v-390.998h22.846z" fill="#ccc"/><path d="m362.519 327.858v184.142h-57.335v-89.391c0-25.16-20.399-45.571-45.571-45.571h-4.713c-25.16 0-45.571 20.411-45.571 45.571v89.391h-59.854v-184.142-37.848h.192l109.534-77.659 103.138 77.659h.18z" fill="#f2f2f2"/><path d="m149.472 290.01h32.175v221.99h-32.175z" fill="#e6e6e6"/><path d="m336.723 200.464c34.094 22.318 38.927 59.254 25.616 89.547h-212.672c-13.323-30.293-8.479-67.229 25.616-89.547 69.364-45.403 80.72-89.547 80.72-89.547s11.345 44.144 80.72 89.547z" fill="#e6e6e6"/><path d="m208.635 200.464c40.599-45.288 47.331-89.313 47.365-89.536-.116.444-11.706 44.363-80.718 89.536-34.094 22.318-38.939 59.254-25.616 89.547h43.936c-7.816-30.293-4.974-67.23 15.033-89.547z" fill="#ccc"/><path d="m443.586 234.69c-4.967 0-8.994-4.027-8.994-8.994v-29.009c0-4.967 4.027-8.994 8.994-8.994s8.994 4.027 8.994 8.994v29.009c0 4.967-4.026 8.994-8.994 8.994z" fill="#808080"/><path d="m443.586 343.16c-4.967 0-8.994-4.027-8.994-8.994v-29.009c0-4.967 4.027-8.994 8.994-8.994s8.994 4.027 8.994 8.994v29.009c0 4.967-4.026 8.994-8.994 8.994z" fill="#808080"/><path d="m101.878 129.997h-66.929c-4.967 0-8.994-4.027-8.994-8.994s4.027-8.994 8.994-8.994h66.929c4.967 0 8.994 4.027 8.994 8.994s-4.027 8.994-8.994 8.994z" fill="#ccc"/><path d="m477.051 129.997h-66.929c-4.967 0-8.994-4.027-8.994-8.994s4.027-8.994 8.994-8.994h66.929c4.967 0 8.994 4.027 8.994 8.994.001 4.967-4.026 8.994-8.994 8.994z" fill="#ccc"/><path d="m68.419 234.69c-4.967 0-8.994-4.027-8.994-8.994v-29.009c0-4.967 4.027-8.994 8.994-8.994s8.994 4.027 8.994 8.994v29.009c0 4.967-4.027 8.994-8.994 8.994z" fill="#808080"/><path d="m68.419 343.16c-4.967 0-8.994-4.027-8.994-8.994v-29.009c0-4.967 4.027-8.994 8.994-8.994s8.994 4.027 8.994 8.994v29.009c0 4.967-4.027 8.994-8.994 8.994z" fill="#808080"/></svg>